<?xml version="1.0" standalone="no"?><!DOCTYPE svg PUBLIC "-//W3C//DTD SVG 1.1//EN" "http://www.w3.org/Graphics/SVG/1.1/DTD/svg11.dtd"><svg t="1587628393902" class="icon" viewBox="0 0 1024 1024" version="1.1" xmlns="http://www.w3.org/2000/svg" p-id="2300" xmlns:xlink="http://www.w3.org/1999/xlink" width="200" height="200"><defs><style type="text/css"></style></defs><path d="M521.142857 969.142857q0-9.142857-9.142857-9.142857-33.714286 0-58-24.285714T429.714286 877.714286q0-9.142857-9.142857-9.142857t-9.142858 9.142857q0 41.714286 29.428572 71.142857T512 978.285714q9.142857 0 9.142857-9.142857z m466.285714-164.571428q0 29.714286-21.714285 51.428571t-51.428572 21.714286h-256q0 60.571429-42.857143 103.428571t-103.428571 42.857143-103.428571-42.857143-42.857143-103.428571H109.714286q-29.714286 0-51.428572-21.714286t-21.714285-51.428571q28.571429-24 52-50.285715t48.571428-68.285714 42.571429-90.571429 28.571428-117.714285T219.428571 329.142857q0-86.857143 66.857143-161.428571T461.714286 77.142857q-4.571429-10.857143-4.571429-22.285714 0-22.857143 16-38.857143t38.857143-16 38.857143 16 16 38.857143q0 11.428571-4.571429 22.285714 108.571429 16 175.428572 90.571429T804.571429 329.142857q0 79.428571 11.142857 148.571429t28.571428 117.714285 42.571429 90.571429 48.571428 68.285714 52 50.285715z" p-id="2301"></path></svg>