<?xml version="1.0" standalone="no"?><!DOCTYPE svg PUBLIC "-//W3C//DTD SVG 1.1//EN" "http://www.w3.org/Graphics/SVG/1.1/DTD/svg11.dtd"><svg t="1587628746311" class="icon" viewBox="0 0 1024 1024" version="1.1" xmlns="http://www.w3.org/2000/svg" p-id="1665" xmlns:xlink="http://www.w3.org/1999/xlink" width="200" height="200"><defs><style type="text/css"></style></defs><path d="M585.142857 786.285714v-109.714285q0-8-5.142857-13.142858t-13.142857-5.142857H457.142857q-8 0-13.142857 5.142857t-5.142857 13.142858v109.714285q0 8 5.142857 13.142857t13.142857 5.142858h109.714286q8 0 13.142857-5.142858t5.142857-13.142857z m146.285714-384q0-50.285714-31.714285-93.142857T620.571429 242.857143t-97.142858-23.428572q-138.857143 0-212 121.714286-8.571429 13.714286 4.571429 24l75.428571 57.142857q4 3.428571 10.857143 3.428572 9.142857 0 14.285715-6.857143 30.285714-38.857143 49.142857-52.571429 19.428571-13.714286 49.142857-13.714285 27.428571 0 48.857143 14.857142t21.428571 33.714286q0 21.714286-11.428571 34.857143t-38.857143 25.714286q-36 16-66 49.428571T438.857143 582.857143v20.571428q0 8 5.142857 13.142858t13.142857 5.142857h109.714286q8 0 13.142857-5.142857t5.142857-13.142858q0-10.857143 12.285714-28.285714T628.571429 546.857143q18.285714-10.285714 28-16.285714t26.285714-20 25.428571-27.428572 16-34.571428 7.142857-46.285715z m219.428572 109.714286q0 119.428571-58.857143 220.285714T732.285714 892 512 950.857143t-220.285714-58.857143T132 732.285714 73.142857 512t58.857143-220.285714T291.714286 132 512 73.142857t220.285714 58.857143T892 291.714286 950.857143 512z" p-id="1666"></path></svg>