<?xml version="1.0" standalone="no"?><!DOCTYPE svg PUBLIC "-//W3C//DTD SVG 1.1//EN" "http://www.w3.org/Graphics/SVG/1.1/DTD/svg11.dtd"><svg t="1587629751431" class="icon" viewBox="0 0 1024 1024" version="1.1" xmlns="http://www.w3.org/2000/svg" p-id="20945" xmlns:xlink="http://www.w3.org/1999/xlink" width="200" height="200"><defs><style type="text/css"></style></defs><path d="M492.8 467.2m-160 0a160 160 0 1 0 320 0 160 160 0 1 0-320 0Z" p-id="20946"></path><path d="M512 32C246.4 32 32 246.4 32 512s214.4 480 480 480 480-214.4 480-480S777.6 32 512 32z m233.6 739.2c-12.8 12.8-32 12.8-44.8 0l-105.6-105.6c-32 16-67.2 25.6-105.6 25.6-124.8 0-224-99.2-224-224s99.2-224 224-224 224 99.2 224 224c0 64-25.6 118.4-67.2 160l99.2 99.2c12.8 12.8 12.8 32 0 44.8z" p-id="20947"></path></svg>